<svg xmlns="http://www.w3.org/2000/svg" width="1280" height="640" viewBox="0 0 1280 640" role="img" aria-labelledby="title desc">
  <title id="title">Truncate banner</title>
  <desc id="desc">A clean typographic banner showing match-aware text truncation preserving invoice #1042.</desc>
  <rect width="1280" height="640" fill="#fafafd"/>
  <g stroke="#111318" stroke-opacity=".09" stroke-width="1">
    <path d="M0 96h1280M0 176h1280M0 256h1280M0 336h1280M0 416h1280M0 496h1280"/>
    <path d="M96 0v640M176 0v640M256 0v640M336 0v640M416 0v640M496 0v640M576 0v640M656 0v640M736 0v640M816 0v640M896 0v640M976 0v640M1056 0v640M1136 0v640"/>
  </g>
  <g fill="#111318" font-family="Geist Mono, SFMono-Regular, Consolas, monospace">
    <text x="96" y="118" font-size="22" letter-spacing="2">DOM-FREE TEXT FITTING ENGINE</text>
    <text x="96" y="208" font-family="Geist, Inter, system-ui, sans-serif" font-size="78" letter-spacing="0">Truncate</text>
    <text x="100" y="284" font-size="24">plain width truncation</text>
    <text x="100" y="438" font-size="24">match-aware truncation</text>
  </g>
  <g font-family="Geist, Inter, system-ui, sans-serif" font-size="32">
    <rect x="96" y="312" width="620" height="72" fill="#fafafd" stroke="#111318" stroke-opacity=".2"/>
    <text x="122" y="358" fill="#111318">A long customer-support note can ...</text>
    <text x="982" y="360" fill="#111318" font-family="Geist Mono, SFMono-Regular, Consolas, monospace" font-size="22">match lost</text>
    <rect x="96" y="466" width="620" height="72" fill="#fafafd" stroke="#111318" stroke-opacity=".2"/>
    <text x="122" y="512" fill="#111318">... about </text>
    <rect x="272" y="482" width="220" height="42" fill="#111318"/>
    <text x="286" y="512" fill="#fafafd">invoice #1042</text>
    <text x="504" y="512" fill="#111318">, and t...</text>
    <text x="942" y="514" fill="#111318" font-family="Geist Mono, SFMono-Regular, Consolas, monospace" font-size="22">invoice visible</text>
  </g>
  <g fill="none" stroke="#111318">
    <path d="M96 254h920" stroke-opacity=".55"/>
    <circle cx="530" cy="254" r="10" fill="#111318"/>
    <path d="M96 246v16M300 246v16M530 246v16M760 246v16M1016 246v16" stroke-opacity=".35"/>
  </g>
  <g fill="#111318" fill-opacity=".54" font-family="Geist Mono, SFMono-Regular, Consolas, monospace" font-size="18">
    <text x="96" y="238">150</text>
    <text x="288" y="238">240</text>
    <text x="512" y="238">300px</text>
    <text x="744" y="238">420</text>
    <text x="994" y="238">520</text>
  </g>
</svg>
